<?xml version="1.0" standalone="no"?><!DOCTYPE svg PUBLIC "-//W3C//DTD SVG 1.1//EN" "http://www.w3.org/Graphics/SVG/1.1/DTD/svg11.dtd"><svg t="1590512136819" class="icon" viewBox="0 0 1024 1024" version="1.1" xmlns="http://www.w3.org/2000/svg" p-id="11818" xmlns:xlink="http://www.w3.org/1999/xlink" width="18" height="18"><defs><style type="text/css"></style></defs><path d="M512 82.39A429.61 429.61 0 1 0 941.61 512 430.08 430.08 0 0 0 512 82.39z m0 641.472A211.862 211.862 0 1 1 723.862 512 211.862 211.862 0 0 1 512 723.862z" fill="#FFFFFF" p-id="11819"></path><path d="M512 0a512 512 0 1 0 512 512A512.589 512.589 0 0 0 512 0z m0 941.61A429.61 429.61 0 1 1 941.61 512 430.08 430.08 0 0 1 512 941.61z" fill="#2F54EB" p-id="11820"></path><path d="M241.014 512.034a270.986 270.986 0 1 0 541.972 0 270.986 270.986 0 1 0-541.972 0z" fill="#2F54EB" p-id="11821"></path></svg>